<?xml version="1.0" encoding="utf-8"?>
<!-- Generator: Adobe Illustrator 20.1.0, SVG Export Plug-In . SVG Version: 6.00 Build 0)  -->
<svg version="1.1" id="Calque_1" xmlns="http://www.w3.org/2000/svg" xmlns:xlink="http://www.w3.org/1999/xlink" x="0px" y="0px"
	 viewBox="0 0 345.3 164" style="enable-background:new 0 0 345.3 164;" xml:space="preserve">
<style type="text/css">
	.st0{fill:#4b9fd5;}
</style>
<g>
	<path class="st0" d="M33.7,19.5c-1-1.9-2.8-2.9-5.5-2.9c-1.5,0-2.7,0.4-3.6,1.2c-0.9,0.8-1.7,2.1-2.2,3.8c-0.5,1.8-0.9,4.1-1.1,6.9
		c-0.2,2.8-0.3,6.3-0.3,10.4c0,4.4,0.1,7.9,0.4,10.6c0.3,2.7,0.8,4.8,1.4,6.3c0.6,1.5,1.4,2.5,2.4,3c0.9,0.5,2,0.8,3.3,0.8
		c1,0,2-0.2,2.9-0.5c0.9-0.4,1.7-1.1,2.3-2.1c0.6-1.1,1.2-2.5,1.5-4.5c0.4-1.9,0.6-4.4,0.6-7.6h11.7c0,3.1-0.2,6.1-0.7,8.9
		c-0.5,2.8-1.4,5.3-2.7,7.4c-1.3,2.1-3.2,3.8-5.6,4.9c-2.4,1.2-5.5,1.8-9.4,1.8c-4.4,0-7.9-0.7-10.5-2.1s-4.6-3.4-6-6.1
		c-1.4-2.6-2.3-5.8-2.7-9.5c-0.4-3.7-0.6-7.7-0.6-12.2c0-4.4,0.2-8.4,0.6-12.1c0.4-3.7,1.3-6.9,2.7-9.5c1.4-2.6,3.4-4.7,6-6.2
		C21.1,8.8,24.6,8,28.9,8c4.2,0,7.4,0.7,9.8,2c2.4,1.4,4.2,3.1,5.4,5.1c1.2,2.1,1.9,4.3,2.2,6.7c0.3,2.4,0.4,4.7,0.4,6.8H35.2
		C35.2,24.5,34.7,21.4,33.7,19.5z"/>
	<path class="st0" d="M51.8,26c0.4-3.7,1.3-6.9,2.7-9.5c1.4-2.6,3.4-4.7,6-6.2C63,8.8,66.5,8,70.9,8s7.9,0.7,10.5,2.2
		c2.6,1.5,4.6,3.6,6,6.2c1.4,2.6,2.3,5.8,2.7,9.5c0.4,3.7,0.6,7.7,0.6,12.1c0,4.4-0.2,8.5-0.6,12.2c-0.4,3.7-1.3,6.8-2.7,9.5
		c-1.4,2.6-3.4,4.7-6,6.1c-2.6,1.4-6.1,2.1-10.5,2.1s-7.9-0.7-10.5-2.1s-4.6-3.4-6-6.1c-1.4-2.6-2.3-5.8-2.7-9.5
		c-0.4-3.7-0.6-7.7-0.6-12.2C51.2,33.7,51.4,29.7,51.8,26z M63.2,48c0.2,2.7,0.6,4.9,1.1,6.6s1.4,2.9,2.4,3.7
		c1.1,0.8,2.4,1.2,4.2,1.2c1.7,0,3.1-0.4,4.2-1.2c1.1-0.8,1.9-2,2.4-3.7c0.6-1.7,0.9-3.9,1.1-6.6c0.2-2.7,0.3-6,0.3-9.9
		s-0.1-7.2-0.3-9.9c-0.2-2.7-0.6-4.9-1.1-6.6c-0.6-1.7-1.4-3-2.4-3.8c-1.1-0.8-2.4-1.2-4.2-1.2c-1.7,0-3.1,0.4-4.2,1.2
		c-1.1,0.8-1.9,2-2.4,3.8c-0.6,1.7-0.9,3.9-1.1,6.6c-0.2,2.7-0.3,6-0.3,9.9C62.9,42,63,45.3,63.2,48z"/>
	<path class="st0" d="M121.2,23c-0.2-1.1-0.6-2.2-1.2-3.1c-0.5-0.9-1.2-1.7-2.1-2.4c-0.8-0.6-1.9-0.9-3-0.9c-2.8,0-4.8,1.6-6.1,4.7
		c-1.2,3.1-1.9,8.3-1.9,15.6c0,3.5,0.1,6.6,0.3,9.4c0.2,2.8,0.6,5.2,1.2,7.2c0.6,2,1.4,3.5,2.4,4.5s2.4,1.6,4.1,1.6
		c0.7,0,1.5-0.2,2.3-0.6c0.8-0.4,1.6-0.9,2.3-1.7c0.7-0.8,1.3-1.7,1.8-2.9c0.5-1.2,0.7-2.5,0.7-4.1v-5.9h-7.7v-8.6h18.9V67h-8.6
		v-5.3h-0.2c-1.4,2.3-3.1,3.9-5.1,4.8c-2,0.9-4.3,1.4-7.1,1.4c-3.6,0-6.5-0.6-8.7-1.9c-2.2-1.2-4-3.2-5.3-5.8
		c-1.3-2.6-2.1-5.8-2.6-9.6c-0.4-3.8-0.6-8.2-0.6-13.2c0-4.9,0.3-9.1,0.9-12.8c0.6-3.7,1.7-6.7,3.2-9.2c1.5-2.5,3.5-4.3,6-5.6
		c2.5-1.2,5.6-1.9,9.3-1.9c6.4,0,11,1.6,13.8,4.7c2.8,3.2,4.2,7.7,4.2,13.6h-11.2C121.6,25.3,121.5,24.1,121.2,23z"/>
	<path class="st0" d="M167,48.8h0.2V9.2h10.7V67h-13.3l-14.3-40.5h-0.2V67h-10.7V9.2h13.4L167,48.8z"/>
	<path class="st0" d="M185,9.2h11.7V67H185L185,9.2L185,9.2z"/>
	<path class="st0" d="M237.6,18.7H225V67h-11.7V18.7h-12.6V9.2h36.9L237.6,18.7L237.6,18.7z"/>
	<path class="st0" d="M241.7,9.2h11.7V67h-11.7L241.7,9.2L241.7,9.2z"/>
	<path class="st0" d="M277.3,51.9h0.2l8.6-42.8h12.1L284.9,67h-15L256.7,9.2h12.5L277.3,51.9z"/>
	<path class="st0" d="M333.3,18.7h-20.7v13.6h19.4v9.6h-19.4v15.6h21.5V67H301V9.2h32.3V18.7z"/>
</g>
<g>
	<path class="st0" d="M29.5,85.7c-0.8-1.6-2.3-2.4-4.5-2.4c-1.2,0-2.2,0.3-3,1c-0.8,0.6-1.4,1.7-1.8,3.1c-0.4,1.4-0.8,3.3-0.9,5.7
		c-0.2,2.3-0.3,5.2-0.3,8.6c0,3.6,0.1,6.5,0.4,8.7c0.2,2.2,0.6,3.9,1.1,5.2c0.5,1.2,1.2,2,1.9,2.5c0.8,0.4,1.7,0.6,2.7,0.6
		c0.8,0,1.6-0.1,2.4-0.4c0.7-0.3,1.4-0.9,1.9-1.7c0.5-0.9,1-2.1,1.3-3.7c0.3-1.6,0.5-3.7,0.5-6.2h9.6c0,2.6-0.2,5-0.6,7.3
		c-0.4,2.3-1.1,4.3-2.2,6.1c-1.1,1.7-2.6,3.1-4.6,4.1c-2,1-4.5,1.5-7.7,1.5c-3.6,0-6.5-0.6-8.6-1.7s-3.8-2.8-4.9-5
		c-1.1-2.2-1.9-4.8-2.2-7.8c-0.3-3-0.5-6.3-0.5-10c0-3.6,0.2-6.9,0.5-10s1.1-5.7,2.2-7.8c1.1-2.2,2.8-3.9,4.9-5.1
		c2.1-1.2,5-1.8,8.6-1.8c3.4,0,6.1,0.6,8.1,1.7c2,1.1,3.5,2.5,4.4,4.2c1,1.7,1.6,3.6,1.8,5.5c0.2,2,0.4,3.8,0.4,5.6h-9.6
		C30.8,89.8,30.3,87.2,29.5,85.7z"/>
	<path class="st0" d="M44.4,91c0.3-3,1.1-5.7,2.2-7.8c1.1-2.2,2.8-3.9,4.9-5.1c2.1-1.2,5-1.8,8.6-1.8c3.6,0,6.5,0.6,8.6,1.8
		c2.1,1.2,3.8,2.9,4.9,5.1c1.1,2.2,1.9,4.8,2.2,7.8s0.5,6.4,0.5,10c0,3.6-0.2,7-0.5,10c-0.3,3-1.1,5.6-2.2,7.8
		c-1.1,2.2-2.8,3.8-4.9,5c-2.1,1.2-5,1.7-8.6,1.7s-6.5-0.6-8.6-1.7s-3.8-2.8-4.9-5c-1.1-2.2-1.9-4.8-2.2-7.8c-0.3-3-0.5-6.3-0.5-10
		C43.9,97.3,44.1,94,44.4,91z M53.8,109.1c0.2,2.2,0.5,4.1,0.9,5.5s1.1,2.4,2,3.1s2,1,3.4,1c1.4,0,2.6-0.3,3.4-1
		c0.9-0.6,1.5-1.7,2-3.1s0.8-3.2,0.9-5.5c0.2-2.2,0.2-5,0.2-8.2c0-3.2-0.1-5.9-0.2-8.1c-0.2-2.2-0.5-4-0.9-5.5
		c-0.5-1.4-1.1-2.5-2-3.1c-0.9-0.6-2-1-3.4-1c-1.4,0-2.6,0.3-3.4,1c-0.9,0.6-1.5,1.7-2,3.1s-0.8,3.2-0.9,5.5
		c-0.2,2.2-0.2,4.9-0.2,8.1C53.5,104.1,53.6,106.9,53.8,109.1z"/>
	<path class="st0" d="M95.2,77.2l6.8,33.6h0.1l6.9-33.6h14.2v47.6h-8.8v-38h-0.1l-8.5,38h-7.5l-8.5-38h-0.1v38h-8.8V77.2H95.2z"/>
	<path class="st0" d="M145.5,77.2c2.4,0,4.5,0.4,6.2,1.2c1.7,0.8,3,1.9,4,3.2c1,1.3,1.8,2.9,2.2,4.6c0.4,1.7,0.7,3.5,0.7,5.2
		c0,2.4-0.4,4.6-1.1,6.4s-1.8,3.3-3.1,4.5c-1.3,1.2-2.9,2-4.8,2.6c-1.9,0.6-3.9,0.9-6.2,0.9h-5.1v19h-9.6V77.2H145.5z M142.6,98.7
		c1.9,0,3.5-0.6,4.6-1.7c1.2-1.2,1.8-3,1.8-5.4c0-2.4-0.5-4.2-1.5-5.5c-1-1.2-2.7-1.9-5.1-1.9h-4v14.5H142.6z"/>
	<path class="st0" d="M162,77.2h9.6v39.7h17v7.9H162V77.2z"/>
	<path class="st0" d="M218.2,85h-17v11.2h16v7.9h-16v12.8h17.6v7.9h-27.2V77.2h26.6V85z"/>
	<path class="st0" d="M231,77.2l6.1,15.4l6.1-15.4h10.5l-11.1,23.5l11.9,24h-10.8l-6.9-16.1l-6.8,16.1h-10.5l11.9-24l-10.9-23.5H231
		z"/>
	<path class="st0" d="M257.3,77.2h9.6v47.6h-9.6V77.2z"/>
	<path class="st0" d="M300.5,85h-10.4v39.7h-9.6V85h-10.4v-7.9h30.4L300.5,85L300.5,85z"/>
	<path class="st0" d="M317.3,95.6h0.1l6.7-18.4h10.4L322.1,106v18.7h-9.6V106l-12.3-28.8H311L317.3,95.6z"/>
</g>
</svg>
