<?xml version="1.0" encoding="utf-8"?>
<!-- Generator: Adobe Illustrator 20.1.0, SVG Export Plug-In . SVG Version: 6.00 Build 0)  -->
<svg version="1.1" id="Calque_1" xmlns="http://www.w3.org/2000/svg" xmlns:xlink="http://www.w3.org/1999/xlink" x="0px" y="0px"
	 viewBox="0 0 12 12" style="enable-background:new 0 0 12 12;" xml:space="preserve">
<style type="text/css">
	.st0{fill:#A5A5A5;}
</style>
<g>
	<g>
		<path class="st0" d="M8.6,6.4H8.2c-0.1,0-0.1,0-0.1,0c0,0,0,0.1,0,0.1v1.8C8,8.5,8,8.7,7.8,8.9C7.6,9.1,7.4,9.2,7.2,9.2H2.6
			C2.3,9.2,2.1,9.1,2,8.9C1.8,8.7,1.7,8.5,1.7,8.3V3.7c0-0.2,0.1-0.4,0.3-0.6c0.2-0.2,0.4-0.3,0.6-0.3h3.9c0.1,0,0.1,0,0.1,0
			c0,0,0-0.1,0-0.1V2.3c0-0.1,0-0.1,0-0.1c0,0-0.1,0-0.1,0H2.6c-0.4,0-0.8,0.2-1.1,0.5C1.1,2.9,1,3.3,1,3.7v4.6
			c0,0.4,0.2,0.8,0.5,1.1c0.3,0.3,0.7,0.5,1.1,0.5h4.6c0.4,0,0.8-0.2,1.1-0.5c0.3-0.3,0.5-0.7,0.5-1.1V6.5c0-0.1,0-0.1,0-0.1
			C8.7,6.4,8.6,6.4,8.6,6.4z"/>
		<path class="st0" d="M10.8,1.5c-0.1-0.1-0.2-0.1-0.2-0.1H7.7c-0.1,0-0.2,0-0.2,0.1C7.4,1.6,7.3,1.7,7.3,1.8s0,0.2,0.1,0.2l1,1
			L4.8,6.6c0,0-0.1,0.1-0.1,0.1c0,0,0,0.1,0.1,0.1l0.6,0.6c0,0,0.1,0.1,0.1,0.1s0.1,0,0.1-0.1l3.6-3.6l1,1c0.1,0.1,0.2,0.1,0.2,0.1
			c0.1,0,0.2,0,0.2-0.1c0.1-0.1,0.1-0.2,0.1-0.2V1.8C10.9,1.7,10.8,1.6,10.8,1.5z"/>
	</g>
</g>
</svg>
