<?xml version="1.0" encoding="utf-8"?>
<!-- Generator: Adobe Illustrator 20.1.0, SVG Export Plug-In . SVG Version: 6.00 Build 0)  -->
<svg version="1.1" id="Layer_1" xmlns="http://www.w3.org/2000/svg" xmlns:xlink="http://www.w3.org/1999/xlink" x="0px" y="0px"
	 viewBox="0 0 504.2 504.2" style="enable-background:new 0 0 504.2 504.2;" xml:space="preserve">
<style type="text/css">
	.st0{fill:#E0E0E0;}
	.st1{fill:#E8E9EA;}
	.st2{fill:#FFFFFF;}
	.st3{fill:#439CCD;}
	.st4{fill:#B4EB03;}
</style>
<path class="st0" d="M440.8,442.8c-13.6,13.6-35.5,13.6-49,0l-139-138.9c-13.5-13.6-13.5-35.5,0-49c13.6-13.5,35.5-13.5,49,0
	l138.9,138.9C454.4,407.3,454.4,429.3,440.8,442.8z"/>
<path class="st1" d="M224.4,61c91.3,0,165.4,74,165.4,165.4s-74,165.4-165.4,165.4S59,317.7,59,226.4S133,61,224.4,61z"/>
<path class="st2" d="M224.4,97.7c71,0,128.6,57.6,128.6,128.6S295.4,355,224.4,355S95.7,297.5,95.7,226.4S153.4,97.7,224.4,97.7z"/>
<path class="st3" d="M165.5,233.8c-0.9-0.9-1.4-2.3-1.4-3.3c0-0.9,0.5-2.3,1.4-3.3l6.5-6.5c1.9-1.9,4.7-1.9,6.5,0l0.5,0.5l25.8,27.6
	c0.9,0.9,2.3,0.9,3.3,0l62.7-65.1h0.5c1.9-1.9,4.7-1.9,6.5,0l6.5,6.5c1.9,1.9,1.9,4.7,0,6.5l-74.9,77.7c-0.9,0.9-1.9,1.4-3.3,1.4
	s-2.3-0.5-3.3-1.4l-36.5-39.3L165.5,233.8z"/>
<g>
	<path class="st1" d="M-249.7,176.7h-129.7c-8,0-14.4-6.5-14.4-14.4l0,0c0-8,6.5-14.4,14.4-14.4h129.7c8,0,14.4,6.5,14.4,14.4l0,0
		C-235.3,170.3-241.8,176.7-249.7,176.7z"/>
	<path class="st1" d="M-480.3,140.7c-31.8,0-57.7,25.8-57.7,57.7s25.8,57.7,57.7,57.7s57.7-25.8,57.7-57.7S-448.5,140.7-480.3,140.7
		z"/>
</g>
<circle class="st4" cx="-112.2" cy="217.8" r="21.2"/>
</svg>
