<?xml version="1.0" encoding="utf-8"?>
<!-- Generator: Adobe Illustrator 20.1.0, SVG Export Plug-In . SVG Version: 6.00 Build 0)  -->
<svg version="1.1" id="Layer_1" xmlns="http://www.w3.org/2000/svg" xmlns:xlink="http://www.w3.org/1999/xlink" x="0px" y="0px"
	 viewBox="0 0 504.1 504.1" style="enable-background:new 0 0 504.1 504.1;" xml:space="preserve">
<style type="text/css">
	.st0{fill:#E8E9EA;}
	.st1{fill:#B7BBBC;}
	.st2{fill:#C6CCCE;}
	.st3{fill:#439CCD;}
	.st4{fill:#B4EB03;}
	.st5{fill:#E0E0E0;}
	.st6{fill:#FFFFFF;}
</style>
<path class="st0" d="M279.9-499.4H47.6c-5.9,0-11.8-5.5-11.8-5.5l-15.4-11.8c0,0-9.1-6.3-13-6.3h-59.9c-14.6,0-26.8,11.8-26.8,26.8
	V-384c0,14.6,11.8,26.8,26.8,26.8h332.8c14.6,0,26.8-11.8,26.8-26.8v-89C306.7-487.6,294.9-499.4,279.9-499.4z"/>
<path class="st1" d="M-98.5-464.7h419.1v92.9H-98.5C-98.5-371.8-98.5-464.7-98.5-464.7z"/>
<path class="st2" d="M-114.2-444.3h449.4v94.5l-449.4-0.4C-114.2-350.1-114.2-444.3-114.2-444.3z"/>
<path class="st0" d="M-117.4-424.6h456.9c13,0,23.6,10.6,23.6,23.6v291.5c0,13-10.6,23.6-23.6,23.6h-456.9
	c-13,0-23.6-10.6-23.6-23.6v-291.4C-141-413.9-130.4-424.6-117.4-424.6z"/>
<path class="st3" d="M296.9-271.7h-57c-6.6,0-12-5.4-12-12v-147c0-6.6,5.4-12,12-12h57c6.6,0,12,5.4,12,12v147
	C308.9-277.1,303.5-271.7,296.9-271.7z"/>
<path class="st0" d="M1008.1-58.4c-21.7,0-48.1-12-76.9-35.3c-38.7-31.3-78-79.7-110.7-136.4s-55-114.9-62.7-164.1
	c-8.2-51.7,0.9-88,25.4-102.1c3.8-2.2,8.7-0.9,10.9,2.9s0.9,8.7-2.9,10.9c-18.1,10.5-24.6,41.8-17.6,85.9
	c7.5,47.3,29.1,103.6,60.8,158.6C895-132.9,967.1-74.4,1008.2-74.4c6.2,0,11.6-1.3,16.3-4c3.8-2.2,8.7-0.9,10.9,2.9
	c2.2,3.8,0.9,8.7-2.9,10.9C1025.2-60.5,1017.1-58.4,1008.1-58.4z"/>
<circle class="st4" cx="762.8" cy="-425.2" r="21.2"/>
<circle class="st3" cx="907.8" cy="-280.5" r="47.7"/>
<path class="st0" d="M1028.4-63.6c-2.7,0-5.4-1.4-6.9-4c-2.2-3.8-0.9-8.7,2.9-10.9C1059.9-99,1051-202.1,981.2-323
	S826.6-503.1,791.1-482.6c-3.8,2.2-8.7,0.9-10.9-2.9s-0.9-8.7,2.9-10.9c24.5-14.2,60.4-3.8,101.1,29.1
	c38.8,31.4,78.1,79.8,110.8,136.4s55,114.9,62.7,164.1c8.2,51.7-0.9,88-25.4,102.1C1031.1-63.9,1029.8-63.6,1028.4-63.6z"/>
<path class="st0" d="M341.9,91H190.6c-8,0-14.4-6.5-14.4-14.4l0,0c0-8,6.5-14.4,14.4-14.4h151.3c8,0,14.4,6.5,14.4,14.4l0,0
	C356.3,84.6,349.9,91,341.9,91z"/>
<path class="st3" d="M89.7,55C57.8,55,32,80.8,32,112.7s25.8,57.7,57.7,57.7s57.7-25.8,57.7-57.7S121.5,55,89.7,55z M123.6,98.5
	L85.1,137c-1.4,1.4-3.3,2.1-5.1,2.1c-1.8,0-3.7-0.7-5.1-2.1l-19.2-19.2c-2.8-2.8-2.8-7.4,0-10.2c2.8-2.8,7.4-2.8,10.2,0L80,121.7
	l33.3-33.3c2.8-2.8,7.4-2.8,10.2,0C126.4,91.2,126.4,95.7,123.6,98.5z"/>
<path class="st0" d="M414,127.1H269.8c-4,0-7.2-3.2-7.2-7.2s3.2-7.2,7.2-7.2H414c4,0,7.2,3.2,7.2,7.2S417.9,127.1,414,127.1z"/>
<path class="st0" d="M241,127.1h-57.7c-4,0-7.2-3.2-7.2-7.2s3.2-7.2,7.2-7.2H241c4,0,7.2,3.2,7.2,7.2S245,127.1,241,127.1z"/>
<path class="st0" d="M442.8,155.9h-43.2c-4,0-7.2-3.2-7.2-7.2s3.2-7.2,7.2-7.2h43.2c4,0,7.2,3.2,7.2,7.2S446.8,155.9,442.8,155.9z"
	/>
<path class="st0" d="M370.7,155.9H183.3c-4,0-7.2-3.2-7.2-7.2s3.2-7.2,7.2-7.2h187.4c4,0,7.2,3.2,7.2,7.2
	C377.9,152.7,374.7,155.9,370.7,155.9z"/>
<g>
	<path class="st0" d="M320.3,393.7H190.6c-8,0-14.4-6.5-14.4-14.4l0,0c0-8,6.5-14.4,14.4-14.4h129.7c8,0,14.4,6.5,14.4,14.4l0,0
		C334.7,387.3,328.2,393.7,320.3,393.7z"/>
	<path class="st0" d="M89.7,357.7c-31.8,0-57.7,25.8-57.7,57.7S57.8,473,89.7,473s57.7-25.8,57.7-57.7S121.5,357.7,89.7,357.7z"/>
</g>
<g>
	<path class="st0" d="M414,429.8H269.8c-4,0-7.2-3.2-7.2-7.2s3.2-7.2,7.2-7.2H414c4,0,7.2,3.2,7.2,7.2
		C421.2,426.5,417.9,429.8,414,429.8z"/>
	<path class="st0" d="M241,429.8h-57.7c-4,0-7.2-3.2-7.2-7.2s3.2-7.2,7.2-7.2H241c4,0,7.2,3.2,7.2,7.2
		C248.2,426.5,245,429.8,241,429.8z"/>
</g>
<g>
	<path class="st0" d="M442.8,458.6h-43.2c-4,0-7.2-3.2-7.2-7.2s3.2-7.2,7.2-7.2h43.2c4,0,7.2,3.2,7.2,7.2S446.8,458.6,442.8,458.6z"
		/>
	<path class="st0" d="M370.7,458.6H183.3c-4,0-7.2-3.2-7.2-7.2s3.2-7.2,7.2-7.2h187.4c4,0,7.2,3.2,7.2,7.2S374.7,458.6,370.7,458.6z
		"/>
</g>
<g>
	<path class="st0" d="M320.3,243.7H190.6c-8,0-14.4-6.5-14.4-14.4l0,0c0-8,6.5-14.4,14.4-14.4h129.7c8,0,14.4,6.5,14.4,14.4l0,0
		C334.7,237.3,328.2,243.7,320.3,243.7z"/>
	<path class="st0" d="M89.7,207.7c-31.8,0-57.7,25.8-57.7,57.7S57.8,323,89.7,323s57.7-25.8,57.7-57.7S121.5,207.7,89.7,207.7z"/>
</g>
<g>
	<path class="st0" d="M414,279.8H269.8c-4,0-7.2-3.2-7.2-7.2s3.2-7.2,7.2-7.2H414c4,0,7.2,3.2,7.2,7.2
		C421.2,276.5,417.9,279.8,414,279.8z"/>
	<path class="st0" d="M241,279.8h-57.7c-4,0-7.2-3.2-7.2-7.2s3.2-7.2,7.2-7.2H241c4,0,7.2,3.2,7.2,7.2
		C248.2,276.5,245,279.8,241,279.8z"/>
</g>
<g>
	<path class="st0" d="M442.8,308.6h-43.2c-4,0-7.2-3.2-7.2-7.2s3.2-7.2,7.2-7.2h43.2c4,0,7.2,3.2,7.2,7.2S446.8,308.6,442.8,308.6z"
		/>
	<path class="st0" d="M370.7,308.6H183.3c-4,0-7.2-3.2-7.2-7.2s3.2-7.2,7.2-7.2h187.4c4,0,7.2,3.2,7.2,7.2S374.7,308.6,370.7,308.6z
		"/>
</g>
<path class="st5" d="M988.8,387.8c-13.6,13.6-35.5,13.6-49,0l-139-138.9c-13.5-13.6-13.5-35.5,0-49c13.6-13.5,35.5-13.5,49,0
	l138.9,138.9C1002.4,352.3,1002.4,374.3,988.8,387.8z"/>
<path class="st0" d="M772.4,6c91.3,0,165.4,74,165.4,165.4s-74,165.4-165.4,165.4S607,262.7,607,171.4S681,6,772.4,6z"/>
<path class="st6" d="M772.4,42.7c71,0,128.6,57.6,128.6,128.6S843.4,300,772.4,300s-128.7-57.5-128.7-128.6S701.4,42.7,772.4,42.7z"
	/>
<path class="st3" d="M713.5,178.8c-0.9-0.9-1.4-2.3-1.4-3.3c0-0.9,0.5-2.3,1.4-3.3l6.5-6.5c1.9-1.9,4.7-1.9,6.5,0l0.5,0.5l25.8,27.6
	c0.9,0.9,2.3,0.9,3.3,0l62.7-65.1h0.5c1.9-1.9,4.7-1.9,6.5,0l6.5,6.5c1.9,1.9,1.9,4.7,0,6.5l-74.9,77.7c-0.9,0.9-1.9,1.4-3.3,1.4
	c-1.4,0-2.3-0.5-3.3-1.4l-36.5-39.3L713.5,178.8z"/>
<circle class="st4" cx="627.8" cy="-125.2" r="21.2"/>
</svg>
