<?xml version="1.0" encoding="utf-8"?>
<!-- Generator: Adobe Illustrator 20.1.0, SVG Export Plug-In . SVG Version: 6.00 Build 0)  -->
<svg version="1.1" id="Layer_1" xmlns="http://www.w3.org/2000/svg" xmlns:xlink="http://www.w3.org/1999/xlink" x="0px" y="0px"
	 viewBox="0 0 512 512" style="enable-background:new 0 0 512 512;" xml:space="preserve">
<style type="text/css">
	.st0{fill:#E8E9EA;}
	.st1{fill:#439CCD;}
	.st2{fill:#E0E0E0;}
	.st3{fill:#B4EB03;}
</style>
<path class="st0" d="M479.7,257.5c-4.1,0-7.5-3.4-7.5-7.5c0-38.2-87.5-79.2-217.5-79.2S37.2,211.8,37.2,250c0,4.1-3.4,7.5-7.5,7.5
	s-7.5-3.4-7.5-7.5c0-26.4,25.1-50.6,70.7-68.1c43.4-16.7,100.8-25.8,161.8-25.8s118.4,9.1,161.8,25.8c45.6,17.5,70.7,41.7,70.7,68.1
	C487.2,254.1,483.8,257.5,479.7,257.5z"/>
<path class="st0" d="M142.2,452.3c-1.2,0-2.5-0.3-3.7-1c-22.8-13.2-31.2-47-23.7-95.2c7.3-45.9,28-100.2,58.5-153
	s67.1-98,103.2-127.2c38-30.7,71.4-40.4,94.3-27.1c3.5,2.1,4.8,6.6,2.7,10.2c-2.1,3.5-6.6,4.8-10.2,2.7
	c-33.1-19.3-112.2,36-177.3,148.8s-73.4,208.9-40.3,228c3.5,2.1,4.8,6.6,2.7,10.2C147.3,450.9,144.8,452.3,142.2,452.3z"/>
<path class="st0" d="M348.3,457.1c-20.2,0-44.9-11.2-71.7-32.9C240.5,395,203.9,349.9,173.4,297s-51.3-107.1-58.5-153
	c-7.6-48.2,0.8-82.1,23.7-95.2c3.5-2.1,8.1-0.8,10.2,2.7c2.1,3.5,0.8,8.1-2.7,10.2c-16.9,9.8-22.9,39-16.4,80.1
	c7,44.1,27.1,96.6,56.7,147.9c56.5,98,123.7,152.6,162.1,152.6c5.8,0,10.8-1.2,15.2-3.7c3.5-2.1,8.1-0.8,10.2,2.7s0.8,8.1-2.7,10.2
	C364.3,455.1,356.7,457.1,348.3,457.1z"/>
<path class="st0" d="M254.8,344c-61,0-118.4-9.1-161.8-25.8c-45.6-17.5-70.7-41.7-70.7-68.1c0-4.1,3.4-7.5,7.5-7.5s7.5,3.4,7.5,7.5
	c0,38.2,87.5,79.2,217.5,79.2s217.5-41,217.5-79.3c0-4.1,3.4-7.5,7.5-7.5s7.5,3.4,7.5,7.5c0,26.4-25.1,50.6-70.7,68.1
	C373.2,334.8,315.8,344,254.8,344z"/>
<circle class="st1" cx="254.8" cy="250" r="44.5"/>
<path class="st0" d="M161.2,457.1c-8.4,0-15.9-1.9-22.7-5.8c-3.5-2.1-4.8-6.6-2.7-10.2c2.1-3.5,6.6-4.8,10.2-2.7
	c33.1,19.1,112.3-36.2,177.4-148.9C353,238.3,373,185.8,380,141.6c6.5-41.1,0.5-70.3-16.4-80.1c-3.5-2.1-4.8-6.6-2.7-10.2
	c2.1-3.5,6.6-4.8,10.2-2.7c22.8,13.2,31.2,47,23.7,95.2c-7.3,45.9-28,100.1-58.5,153s-67.1,98-103.2,127.2
	C206,445.9,181.4,457.1,161.2,457.1z"/>
<path class="st0" d="M367.3,452.3c-2.5,0-5-1.3-6.4-3.7c-2.1-3.5-0.8-8.1,2.7-10.2c33.1-19.1,24.8-115.3-40.3-228
	S179.1,42.4,146,61.5c-3.5,2.1-8.1,0.8-10.2-2.7c-2.1-3.5-0.8-8.1,2.7-10.2c22.8-13.2,56.3-3.5,94.3,27.1
	c36.2,29.3,72.8,74.4,103.3,127.2s51.3,107.1,58.5,153c7.6,48.2-0.8,82.1-23.7,95.2C369.8,452,368.6,452.3,367.3,452.3z"/>
<circle class="st2" cx="389.9" cy="115.1" r="19.8"/>
<circle class="st2" cx="199.6" cy="437.1" r="19.8"/>
<circle class="st3" cx="611.8" cy="179.8" r="21.2"/>
</svg>
