<?xml version="1.0" encoding="utf-8"?>
<!-- Generator: Adobe Illustrator 20.1.0, SVG Export Plug-In . SVG Version: 6.00 Build 0)  -->
<svg version="1.1" id="Calque_1" xmlns="http://www.w3.org/2000/svg" xmlns:xlink="http://www.w3.org/1999/xlink" x="0px" y="0px"
	 viewBox="0 0 1920 430.6" style="enable-background:new 0 0 1920 430.6;" xml:space="preserve">
<style type="text/css">
	.st0{fill:#439BCC;}
	.st1{fill:url(#SVGID_1_);}
	.st2{opacity:0.3;}
	.st3{fill:#57B1E3;}
	.st4{fill:#57B0E3;}
	.st5{clip-path:url(#SVGID_3_);fill:#57B0E3;}
	.st6{clip-path:url(#SVGID_5_);fill:#57B0E3;}
	.st7{opacity:0.3;fill:#58AFE3;enable-background:new    ;}
</style>
<rect x="-28" y="1.4" class="st0" width="1963.1" height="428.5"/>
<radialGradient id="SVGID_1_" cx="3" cy="-267.11" r="0" gradientTransform="matrix(1 0 0 -1 0 241.89)" gradientUnits="userSpaceOnUse">
	<stop  offset="0" style="stop-color:#55B4E6"/>
	<stop  offset="1" style="stop-color:#439BCC"/>
</radialGradient>
<path class="st1" d="M3,509"/>
<g class="st2">
	<path class="st3" d="M547.2,165.6l-68.4-24.7l10.8-29.9c5.1-14.2,20.9-21.6,35-16.4c14.2,5.1,21.6,20.9,16.4,35.1l-2.9,8.1
		c-1.6,4.4,0.7,9.2,5.1,10.8c4.4,1.6,9.2-0.7,10.8-5.1l2.9-8.1c8.3-23-3.6-48.4-26.6-56.7s-48.4,3.6-56.7,26.6l-10.8,29.9l-1-0.4
		c-12.1-4.4-25.6,1.9-30,14L401,233.9c-4.6,12.7,2,26.7,14.7,31.3l83.3,30.1c12.7,4.6,26.7-2,31.3-14.7l30.8-85.1
		C565.6,183.4,559.3,169.9,547.2,165.6L547.2,165.6z M514.5,274.8c-1.4,3.9-5.7,5.9-9.6,4.5l-83.3-30.1c-3.9-1.4-5.9-5.7-4.5-9.6
		l30.8-85.1c1.2-3.4,4.9-5.1,8.3-3.9l85.3,30.8c3.4,1.2,5.1,4.9,3.9,8.3L514.5,274.8z"/>
	<path class="st3" d="M491.7,186.6c-9.1-3.3-19.1,1.4-22.4,10.5c-2.2,6.2-0.8,12.8,3.3,17.5l-7.4,20.3c-1.6,4.4,0.7,9.2,5.1,10.8
		s9.2-0.7,10.8-5.1l7.4-20.3c6.1-1,11.5-5.1,13.7-11.3C505.5,199.9,500.8,189.9,491.7,186.6L491.7,186.6z"/>
	<path class="st3" d="M571.9,143.3c0.8,0.7,1.8,1.3,2.8,1.6c3.2,1.1,6.8,0.3,9.2-2.3l11.3-12.6c3.1-3.5,2.8-8.8-0.7-11.9
		s-8.8-2.8-12,0.7l-11.3,12.6C568.1,134.9,568.4,140.2,571.9,143.3L571.9,143.3z"/>
	<path class="st3" d="M577.5,156.5c0.2,3.5,2.5,6.4,5.6,7.5c1,0.4,2.2,0.6,3.4,0.5l16.9-1c4.7-0.3,8.2-4.3,8-8.9
		c-0.3-4.7-4.3-8.2-8.9-8l-16.9,1C580.8,147.8,577.2,151.8,577.5,156.5L577.5,156.5z"/>
	<path class="st3" d="M596.8,180.3L584.1,169c-3.5-3.1-8.8-2.8-11.9,0.7c-3.1,3.5-2.8,8.8,0.7,11.9l12.6,11.3
		c0.8,0.7,1.8,1.3,2.8,1.6c3.2,1.1,6.8,0.3,9.2-2.3C600.5,188.7,600.2,183.4,596.8,180.3L596.8,180.3z"/>
</g>
<g class="st2">
	<path class="st4" d="M1487.9,62.8c-1.2-0.9-2.8-0.7-3.8,0.3c-1.9,2-4.2,3.6-6.9,4.8c-2.7,1.1-5.5,1.7-8.2,1.7
		c-1.4,0-2.7,1.1-2.9,2.5l-4.8,40.2c-0.2,1.6,1,3.1,2.6,3.2c5.5,0.4,17.8,0.5,31.2-5.1l0.3-0.1c13.2-5.7,21.8-14.7,25.3-18.9
		c1-1.2,0.8-3.1-0.5-4.1L1487.9,62.8z"/>
	<path class="st4" d="M1449,54.7c-1.6-5.6-0.9-11.6,1.9-16.4c0.7-1.3,0.4-2.9-0.8-3.7l-32.5-24.2c-1.3-1-3.2-0.7-4.1,0.7
		c-3.1,4.6-9.3,15.3-11,29.6c0,0.1,0,0.1,0,0.2v0.2c-1.6,14.3,1.9,26.2,3.8,31.4c0.6,1.5,2.3,2.3,3.8,1.6l37.3-15.9
		C1448.7,57.6,1449.4,56.1,1449,54.7L1449,54.7z"/>
	<path class="st4" d="M1509.5-4.6L1509.5-4.6c-0.1-0.1-0.1-0.1-0.2-0.2c-11.5-8.6-23.5-11.6-29-12.5c-1.6-0.3-3.1,0.8-3.3,2.4
		l-5.1,40.2c-0.2,1.4,0.7,2.8,2.1,3.1c5.4,1.4,10.2,4.9,13.2,10c0.7,1.2,2.3,1.8,3.6,1.2l37.3-15.9c1.5-0.6,2.2-2.4,1.5-3.9
		C1527.1,15,1521,4.2,1509.5-4.6L1509.5-4.6z"/>
	<g>
		<g>
			<g>
				<g>
					<g>
						<g>
							<defs>
								
									<rect id="SVGID_2_" x="1374.7" y="-45.6" transform="matrix(0.9202 -0.3914 0.3914 0.9202 98.1954 578.7658)" width="188.1" height="188.2"/>
							</defs>
							<clipPath id="SVGID_3_">
								<use xlink:href="#SVGID_2_"  style="overflow:visible;"/>
							</clipPath>
							<path class="st5" d="M1456.2,54.3c2,4.7,6.3,7.7,11,8.3c2.4,0.3,4.9,0,7.2-1c2.4-1,4.3-2.6,5.8-4.5c2.8-3.8,3.6-9,1.7-13.7
								v-0.1c-2-4.8-6.4-7.8-11.2-8.4c-2.4-0.3-4.8,0-7.1,1c-2.3,1-4.2,2.6-5.7,4.4C1455,44.2,1454.2,49.4,1456.2,54.3
								C1456.2,54.2,1456.2,54.2,1456.2,54.3L1456.2,54.3z"/>
						</g>
					</g>
				</g>
			</g>
		</g>
		<g>
			<g>
				<g>
					<g>
						<g>
							<defs>
								
									<rect id="SVGID_4_" x="1374.7" y="-45.6" transform="matrix(0.9202 -0.3914 0.3914 0.9202 98.1954 578.7658)" width="188.1" height="188.2"/>
							</defs>
							<clipPath id="SVGID_5_">
								<use xlink:href="#SVGID_4_"  style="overflow:visible;"/>
							</clipPath>
							<path class="st6" d="M1504.1-38.8c-11.3-4.6-23.2-6.9-35.4-6.8c-12.6,0-24.9,2.5-36.6,7.5s-22,12.1-30.8,21.1
								c-8.5,8.7-15.1,18.9-19.6,30.3c-4.6,11.3-6.9,23.2-6.8,35.4c0,12.6,2.6,24.9,7.5,36.6c5,11.7,12.1,22,21.1,30.8
								c8.7,8.5,18.9,15.1,30.3,19.6c11.3,4.6,23.2,6.9,35.4,6.8c12.6,0,24.9-2.6,36.6-7.5s22-12.1,30.8-21.1
								c8.5-8.7,15.1-18.9,19.6-30.3c4.6-11.3,6.9-23.2,6.8-35.4c0-12.6-2.6-24.9-7.5-36.6c-5-11.7-12.1-22.1-21.1-30.8
								C1525.6-27.7,1515.4-34.2,1504.1-38.8L1504.1-38.8z M1544.9,48.2c0,9.8-1.8,19.4-5.5,28.6s-9,17.4-15.8,24.4
								c-7.1,7.3-15.4,13.1-24.9,17.1c-9.4,4-19.4,6.1-29.6,6.1c-9.8,0-19.4-1.8-28.6-5.5s-17.4-9-24.4-15.8
								c-7.3-7.1-13.1-15.4-17.1-24.9c-4-9.4-6.1-19.4-6.1-29.6c0-9.8,1.8-19.4,5.5-28.6s9-17.4,15.8-24.4
								c7.1-7.3,15.4-13.1,24.9-17.1c9.4-4,19.4-6.1,29.6-6.1c9.8,0,19.4,1.8,28.6,5.5s17.4,9,24.4,15.8
								c7.3,7.1,13.1,15.4,17.1,24.9S1544.9,38.1,1544.9,48.2L1544.9,48.2z"/>
						</g>
					</g>
				</g>
			</g>
		</g>
	</g>
</g>
<path class="st7" d="M1333.4,357.5c0.6,1.5,1.7,2.7,3.1,3.4l27.2,12.4l4.3,11.6l-15.8,5.9c-1.5,0.6-2.7,1.7-3.4,3.1l-10.5,22.9
	c-1.4,3,0,6.6,3,7.9c1.5,0.7,3.2,0.7,4.6,0.2s2.7-1.6,3.4-3.1l9.4-20.7l13.5-5l2,5.5l-8.7,28.3h12.5l3.1-10.2
	c1.9,3.8,4.4,7.2,7.2,10.2h21c-8.5-3.2-15.6-9.9-19-19l-21.1-56.5l24.9-9.3l25.1,67.2l-8.1,17.6h13.2l4.3-9.5l11.5,5.2
	c-2.3,1.7-4.9,3.1-7.7,4.2h21c0.6-0.6,1.2-1.3,1.7-2c0.1-0.1,0.2-0.2,0.3-0.3c8.6-10.6,12.1-25,8.7-38.9l15.6,9.7l11.5,30.8
	c0.1,0.2,0.2,0.5,0.3,0.7h10.6c0.8-1.5,0.9-3.2,0.3-4.9l-12.2-32.7c-0.5-1.2-1.3-2.3-2.4-3l-30.1-18.9l-2-5.5l13.5-5l20.7,9.4
	c1.5,0.7,3.2,0.7,4.6,0.2s2.7-1.6,3.4-3.1c1.4-3,0-6.6-3-7.9l-22.9-10.5c-1.4-0.7-3.1-0.7-4.6-0.2l-15.8,5.9l-4.3-11.6l12.4-27.2
	c0.7-1.4,0.7-3.1,0.2-4.6l-11.6-31c-1.2-3.1-4.6-4.7-7.7-3.5s-4.7,4.6-3.5,7.7l10.7,28.7l-6.4,14l-1.7-4.6c-1.2-3.1-4.6-4.7-7.7-3.5
	l-3.8,1.4c-6.3-10.8-17.9-17.2-30.1-17.3l12.3-26.9c1.4-3,0-6.6-3-7.9c-3-1.4-6.6,0-7.9,3l-14.5,31.8l-31.5-14.4c-3-1.4-6.6,0-7.9,3
	c-1.4,3,0,6.6,3,7.9l26.6,12.1c-9.2,8-13.7,20.5-11.4,32.8l-4,1.5c-3.1,1.2-4.7,4.6-3.5,7.7l1.7,4.6l-14-6.4l-10.7-28.7
	c-1.2-3.1-4.6-4.7-7.7-3.5s-4.7,4.6-3.5,7.7L1333.4,357.5z M1430.4,331.5l21.1,56.5c3.6,9.7,2.3,20-2.7,28.3l-18.2-8.3l-25.1-67.2
	L1430.4,331.5z M1389.9,315.7c9.9-3.7,20.8-0.1,26.6,8.1l-41.5,15.5C1374.1,329.3,1380,319.4,1389.9,315.7z"/>
</svg>
